<?xml version="1.0" encoding="UTF-8" standalone="no"?>
<svg
   xmlns:dc="http://purl.org/dc/elements/1.1/"
   xmlns:cc="http://creativecommons.org/ns#"
   xmlns:rdf="http://www.w3.org/1999/02/22-rdf-syntax-ns#"
   xmlns:svg="http://www.w3.org/2000/svg"
   xmlns="http://www.w3.org/2000/svg"
   viewBox="0 0 432 189.33333"
   height="189.33333"
   width="432"
   xml:space="preserve"
   id="svg2"
   version="1.1"><metadata
     id="metadata8"><rdf:RDF><cc:Work
         rdf:about=""><dc:format>image/svg+xml</dc:format><dc:type
           rdf:resource="http://purl.org/dc/dcmitype/StillImage" /></cc:Work></rdf:RDF></metadata><defs
     id="defs6"><clipPath
       id="clipPath20"
       clipPathUnits="userSpaceOnUse"><path
         id="path18"
         d="M 0,0.1818178 H 324 V 142.00002 H 0 Z" /></clipPath></defs><g
     transform="matrix(1.3333333,0,0,-1.3333333,0,189.33333)"
     id="g10"><g
       id="g12" /><g
       id="g14"><g
         clip-path="url(#clipPath20)"
         id="g16"><path
           id="path22"
           style="fill:#ffffff;fill-opacity:1;fill-rule:nonzero;stroke:none"
           d="M 0,142 H 324 V 0.1818178 H 0 Z" /></g></g><g
       id="g24"><g
         transform="matrix(0.2181818,0,0,0.2181818,9.618753,-22.07272)"
         id="g26"><text
           id="text30"
           style="font-variant:normal;font-weight:normal;font-size:82.99999237px;font-family:CambriaMath;-inkscape-font-specification:CambriaMath;writing-mode:lr-tb;fill:#000000;fill-opacity:1;fill-rule:nonzero;stroke:none"
           transform="matrix(1,0,0,-1,0,650)"><tspan
             id="tspan28"
             y="0"
             x="0">푞</tspan></text>
</g><g
         transform="matrix(0.2181818,0,0,0.2181818,19.01875,-25.56363)"
         id="g32"><text
           id="text36"
           style="font-variant:normal;font-weight:normal;font-size:61px;font-family:CambriaMath;-inkscape-font-specification:CambriaMath;writing-mode:lr-tb;fill:#000000;fill-opacity:1;fill-rule:nonzero;stroke:none"
           transform="matrix(1,0,0,-1,0,650)"><tspan
             id="tspan34"
             y="0"
             x="0">!</tspan></text>
</g><g
         transform="matrix(7.874016e-5,0,0,-7.874016e-5,37.12723,126.3454)"
         id="g38"><path
           id="path40"
           style="fill:none;stroke:#000000;stroke-width:19050;stroke-linecap:butt;stroke-linejoin:miter;stroke-miterlimit:8;stroke-dasharray:none;stroke-opacity:1"
           d="M 0,0 3628167,1" /></g><g
         transform="matrix(0.2181818,0,0,0.2181818,10.59537,-57.63636)"
         id="g42"><text
           id="text46"
           style="font-variant:normal;font-weight:normal;font-size:82.99999237px;font-family:CambriaMath;-inkscape-font-specification:CambriaMath;writing-mode:lr-tb;fill:#000000;fill-opacity:1;fill-rule:nonzero;stroke:none"
           transform="matrix(1,0,0,-1,0,650)"><tspan
             id="tspan44"
             y="0"
             x="0">푞</tspan></text>
</g><g
         transform="matrix(0.2181818,0,0,0.2181818,19.58037,-61.34545)"
         id="g48"><text
           id="text52"
           style="font-variant:normal;font-weight:normal;font-size:61px;font-family:CambriaMath;-inkscape-font-specification:CambriaMath;writing-mode:lr-tb;fill:#000000;fill-opacity:1;fill-rule:nonzero;stroke:none"
           transform="matrix(1,0,0,-1,0,650)"><tspan
             id="tspan50"
             y="0"
             x="0">&quot;</tspan></text>
</g><g
         transform="matrix(7.874016e-5,0,0,-7.874016e-5,38.21818,90.12725)"
         id="g54"><path
           id="path56"
           style="fill:none;stroke:#000000;stroke-width:19050;stroke-linecap:butt;stroke-linejoin:miter;stroke-miterlimit:8;stroke-dasharray:none;stroke-opacity:1"
           d="M 0,0 3614781,1" /></g><path
         id="path58"
         style="fill:#ffffff;fill-opacity:1;fill-rule:nonzero;stroke:none"
         d="m 180.6909,135.9454 h 24.4363 V 75.07276 h -24.4363 z" /><g
         transform="matrix(7.874016e-5,0,0,-7.874016e-5,180.6909,135.9454)"
         id="g60"><path
           id="path62"
           style="fill:none;stroke:#ed7d31;stroke-width:19050;stroke-linecap:butt;stroke-linejoin:miter;stroke-miterlimit:8;stroke-dasharray:none;stroke-opacity:1"
           d="M 0,0 H 310341 V 773083 H 0 Z" /></g><g
         transform="matrix(0.2181818,0,0,0.2181818,178.7214,-40.39999)"
         id="g64"><text
           id="text68"
           style="font-variant:normal;font-weight:normal;font-size:55px;font-family:CambriaMath;-inkscape-font-specification:CambriaMath;writing-mode:lr-tb;fill:#ed7d31;fill-opacity:1;fill-rule:nonzero;stroke:none"
           transform="matrix(1,0,0,-1,0,650)"><tspan
             id="tspan66"
             y="0"
             x="0">	</tspan></text>
</g><g
         transform="matrix(0.2181818,0,0,0.2181818,181.3464,-40.39999)"
         id="g70"><text
           id="text74"
           style="font-variant:normal;font-weight:normal;font-size:55px;font-family:CambriaMath;-inkscape-font-specification:CambriaMath;writing-mode:lr-tb;fill:#ed7d31;fill-opacity:1;fill-rule:nonzero;stroke:none"
           transform="matrix(1,0,0,-1,0,650)"><tspan
             id="tspan72"
             y="0"
             x="0">풞</tspan></text>
</g><g
         transform="matrix(0.2181818,0,0,0.2181818,188.9764,-40.39999)"
         id="g76"><text
           id="text80"
           style="font-variant:normal;font-weight:normal;font-size:55px;font-family:CambriaMath;-inkscape-font-specification:CambriaMath;writing-mode:lr-tb;fill:#ed7d31;fill-opacity:1;fill-rule:nonzero;stroke:none"
           transform="matrix(1,0,0,-1,0,650)"><tspan
             id="tspan78"
             y="0"
             x="0">[</tspan></text>
</g><g
         transform="matrix(0.2181818,0,0,0.2181818,193.2264,-40.39999)"
         id="g82"><text
           id="text86"
           style="font-variant:normal;font-weight:normal;font-size:55px;font-family:CambriaMath;-inkscape-font-specification:CambriaMath;writing-mode:lr-tb;fill:#ed7d31;fill-opacity:1;fill-rule:nonzero;stroke:none"
           transform="matrix(1,0,0,-1,0,650)"><tspan
             id="tspan84"
             y="0"
             x="0">6</tspan></text>
</g><g
         transform="matrix(0.2181818,0,0,0.2181818,199.8514,-40.39999)"
         id="g88"><text
           id="text92"
           style="font-variant:normal;font-weight:normal;font-size:55px;font-family:CambriaMath;-inkscape-font-specification:CambriaMath;writing-mode:lr-tb;fill:#ed7d31;fill-opacity:1;fill-rule:nonzero;stroke:none"
           transform="matrix(1,0,0,-1,0,650)"><tspan
             id="tspan90"
             y="0"
             x="0">]</tspan></text>
</g><g
         transform="matrix(0.2181818,0,0,0.2181818,10.13222,-93.63636)"
         id="g94"><text
           id="text98"
           style="font-variant:normal;font-weight:normal;font-size:82.99999237px;font-family:CambriaMath;-inkscape-font-specification:CambriaMath;writing-mode:lr-tb;fill:#000000;fill-opacity:1;fill-rule:nonzero;stroke:none"
           transform="matrix(1,0,0,-1,0,650)"><tspan
             id="tspan96"
             y="0"
             x="0">푞</tspan></text>
</g><g
         transform="matrix(0.2181818,0,0,0.2181818,19.53222,-97.34545)"
         id="g100"><text
           id="text104"
           style="font-variant:normal;font-weight:normal;font-size:61px;font-family:CambriaMath;-inkscape-font-specification:CambriaMath;writing-mode:lr-tb;fill:#000000;fill-opacity:1;fill-rule:nonzero;stroke:none"
           transform="matrix(1,0,0,-1,0,650)"><tspan
             id="tspan102"
             y="0"
             x="0">#</tspan></text>
</g><g
         transform="matrix(7.874016e-5,0,0,-7.874016e-5,37.7818,54.12725)"
         id="g106"><path
           id="path108"
           style="fill:none;stroke:#000000;stroke-width:19050;stroke-linecap:butt;stroke-linejoin:miter;stroke-miterlimit:8;stroke-dasharray:none;stroke-opacity:1"
           d="M 0,0 3620409,1" /></g><g
         transform="matrix(0.2181818,0,0,0.2181818,9.810407,-129.8545)"
         id="g110"><text
           id="text114"
           style="font-variant:normal;font-weight:normal;font-size:82.99999237px;font-family:CambriaMath;-inkscape-font-specification:CambriaMath;writing-mode:lr-tb;fill:#000000;fill-opacity:1;fill-rule:nonzero;stroke:none"
           transform="matrix(1,0,0,-1,0,650)"><tspan
             id="tspan112"
             y="0"
             x="0">푞</tspan></text>
</g><g
         transform="matrix(0.2181818,0,0,0.2181818,19.21041,-133.3454)"
         id="g116"><text
           id="text120"
           style="font-variant:normal;font-weight:normal;font-size:61px;font-family:CambriaMath;-inkscape-font-specification:CambriaMath;writing-mode:lr-tb;fill:#000000;fill-opacity:1;fill-rule:nonzero;stroke:none"
           transform="matrix(1,0,0,-1,0,650)"><tspan
             id="tspan118"
             y="0"
             x="0">$</tspan></text>
</g><g
         transform="matrix(7.874016e-5,0,0,-7.874016e-5,37.56361,18.12725)"
         id="g122"><path
           id="path124"
           style="fill:none;stroke:#000000;stroke-width:19050;stroke-linecap:butt;stroke-linejoin:miter;stroke-miterlimit:8;stroke-dasharray:none;stroke-opacity:1"
           d="M 0,0 3624496,1" /></g><path
         id="path126"
         style="fill:#ffffff;fill-opacity:1;fill-rule:nonzero;stroke:none"
         d="M 52.61818,136.3818 H 77.05456 V 113.2546 H 52.61818 Z" /><g
         transform="matrix(7.874016e-5,0,0,-7.874016e-5,52.61818,136.3818)"
         id="g128"><path
           id="path130"
           style="fill:none;stroke:#ed7d31;stroke-width:19050;stroke-linecap:butt;stroke-linejoin:miter;stroke-miterlimit:8;stroke-dasharray:none;stroke-opacity:1"
           d="M 0,0 H 310342 V 293716 H 0 Z" /></g><g
         transform="matrix(0.2181818,0,0,0.2181818,50.578,-20.98181)"
         id="g132"><text
           id="text136"
           style="font-variant:normal;font-weight:normal;font-size:55px;font-family:CambriaMath;-inkscape-font-specification:CambriaMath;writing-mode:lr-tb;fill:#ed7d31;fill-opacity:1;fill-rule:nonzero;stroke:none"
           transform="matrix(1,0,0,-1,0,650)"><tspan
             id="tspan134"
             y="0"
             x="0">	</tspan></text>
</g><g
         transform="matrix(0.2181818,0,0,0.2181818,53.203,-20.98181)"
         id="g138"><text
           id="text142"
           style="font-variant:normal;font-weight:normal;font-size:55px;font-family:CambriaMath;-inkscape-font-specification:CambriaMath;writing-mode:lr-tb;fill:#ed7d31;fill-opacity:1;fill-rule:nonzero;stroke:none"
           transform="matrix(1,0,0,-1,0,650)"><tspan
             id="tspan140"
             y="0"
             x="0">풞</tspan></text>
</g><g
         transform="matrix(0.2181818,0,0,0.2181818,60.833,-20.98181)"
         id="g144"><text
           id="text148"
           style="font-variant:normal;font-weight:normal;font-size:55px;font-family:CambriaMath;-inkscape-font-specification:CambriaMath;writing-mode:lr-tb;fill:#ed7d31;fill-opacity:1;fill-rule:nonzero;stroke:none"
           transform="matrix(1,0,0,-1,0,650)"><tspan
             id="tspan146"
             y="0"
             x="0">[</tspan></text>
</g><g
         transform="matrix(0.2181818,0,0,0.2181818,65.083,-20.98181)"
         id="g150"><text
           id="text154"
           style="font-variant:normal;font-weight:normal;font-size:55px;font-family:CambriaMath;-inkscape-font-specification:CambriaMath;writing-mode:lr-tb;fill:#ed7d31;fill-opacity:1;fill-rule:nonzero;stroke:none"
           transform="matrix(1,0,0,-1,0,650)"><tspan
             id="tspan152"
             y="0"
             x="0">0</tspan></text>
</g><g
         transform="matrix(0.2181818,0,0,0.2181818,71.708,-20.98181)"
         id="g156"><text
           id="text160"
           style="font-variant:normal;font-weight:normal;font-size:55px;font-family:CambriaMath;-inkscape-font-specification:CambriaMath;writing-mode:lr-tb;fill:#ed7d31;fill-opacity:1;fill-rule:nonzero;stroke:none"
           transform="matrix(1,0,0,-1,0,650)"><tspan
             id="tspan158"
             y="0"
             x="0">]</tspan></text>
</g><path
         id="path162"
         style="fill:#ffffff;fill-opacity:1;fill-rule:nonzero;stroke:none"
         d="M 53.05456,102.7818 H 77.49093 V 41.90906 H 53.05456 Z" /><g
         transform="matrix(7.874016e-5,0,0,-7.874016e-5,53.05456,102.7818)"
         id="g164"><path
           id="path166"
           style="fill:none;stroke:#ed7d31;stroke-width:19050;stroke-linecap:butt;stroke-linejoin:miter;stroke-miterlimit:8;stroke-dasharray:none;stroke-opacity:1"
           d="M 0,0 H 310342 V 773084 H 0 Z" /></g><g
         transform="matrix(0.2181818,0,0,0.2181818,51.12462,-73.56363)"
         id="g168"><text
           id="text172"
           style="font-variant:normal;font-weight:normal;font-size:55px;font-family:CambriaMath;-inkscape-font-specification:CambriaMath;writing-mode:lr-tb;fill:#ed7d31;fill-opacity:1;fill-rule:nonzero;stroke:none"
           transform="matrix(1,0,0,-1,0,650)"><tspan
             id="tspan170"
             y="0"
             x="0">	</tspan></text>
</g><g
         transform="matrix(0.2181818,0,0,0.2181818,53.74962,-73.56363)"
         id="g174"><text
           id="text178"
           style="font-variant:normal;font-weight:normal;font-size:55px;font-family:CambriaMath;-inkscape-font-specification:CambriaMath;writing-mode:lr-tb;fill:#ed7d31;fill-opacity:1;fill-rule:nonzero;stroke:none"
           transform="matrix(1,0,0,-1,0,650)"><tspan
             id="tspan176"
             y="0"
             x="0">풞</tspan></text>
</g><g
         transform="matrix(0.2181818,0,0,0.2181818,61.37962,-73.56363)"
         id="g180"><text
           id="text184"
           style="font-variant:normal;font-weight:normal;font-size:55px;font-family:CambriaMath;-inkscape-font-specification:CambriaMath;writing-mode:lr-tb;fill:#ed7d31;fill-opacity:1;fill-rule:nonzero;stroke:none"
           transform="matrix(1,0,0,-1,0,650)"><tspan
             id="tspan182"
             y="0"
             x="0">[</tspan></text>
</g><g
         transform="matrix(0.2181818,0,0,0.2181818,65.62961,-73.56363)"
         id="g186"><text
           id="text190"
           style="font-variant:normal;font-weight:normal;font-size:55px;font-family:CambriaMath;-inkscape-font-specification:CambriaMath;writing-mode:lr-tb;fill:#ed7d31;fill-opacity:1;fill-rule:nonzero;stroke:none"
           transform="matrix(1,0,0,-1,0,650)"><tspan
             id="tspan188"
             y="0"
             x="0">1</tspan></text>
</g><g
         transform="matrix(0.2181818,0,0,0.2181818,72.25462,-73.56363)"
         id="g192"><text
           id="text196"
           style="font-variant:normal;font-weight:normal;font-size:55px;font-family:CambriaMath;-inkscape-font-specification:CambriaMath;writing-mode:lr-tb;fill:#ed7d31;fill-opacity:1;fill-rule:nonzero;stroke:none"
           transform="matrix(1,0,0,-1,0,650)"><tspan
             id="tspan194"
             y="0"
             x="0">]</tspan></text>
</g><path
         id="path198"
         style="fill:#ffffff;fill-opacity:1;fill-rule:nonzero;stroke:none"
         d="M 86.43637,63.07276 H 110.8727 V 5.036382 H 86.43637 Z" /><g
         transform="matrix(7.874016e-5,0,0,-7.874016e-5,86.43637,63.07276)"
         id="g200"><path
           id="path202"
           style="fill:none;stroke:#ed7d31;stroke-width:19050;stroke-linecap:butt;stroke-linejoin:miter;stroke-miterlimit:8;stroke-dasharray:none;stroke-opacity:1"
           d="M 0,0 H 310342 V 737062 H 0 Z" /></g><g
         transform="matrix(0.2181818,0,0,0.2181818,84.58288,-111.9636)"
         id="g204"><text
           id="text208"
           style="font-variant:normal;font-weight:normal;font-size:55px;font-family:CambriaMath;-inkscape-font-specification:CambriaMath;writing-mode:lr-tb;fill:#ed7d31;fill-opacity:1;fill-rule:nonzero;stroke:none"
           transform="matrix(1,0,0,-1,0,650)"><tspan
             id="tspan206"
             y="0"
             x="0">	</tspan></text>
</g><g
         transform="matrix(0.2181818,0,0,0.2181818,87.20788,-111.9636)"
         id="g210"><text
           id="text214"
           style="font-variant:normal;font-weight:normal;font-size:55px;font-family:CambriaMath;-inkscape-font-specification:CambriaMath;writing-mode:lr-tb;fill:#ed7d31;fill-opacity:1;fill-rule:nonzero;stroke:none"
           transform="matrix(1,0,0,-1,0,650)"><tspan
             id="tspan212"
             y="0"
             x="0">풞</tspan></text>
</g><g
         transform="matrix(0.2181818,0,0,0.2181818,94.83789,-111.9636)"
         id="g216"><text
           id="text220"
           style="font-variant:normal;font-weight:normal;font-size:55px;font-family:CambriaMath;-inkscape-font-specification:CambriaMath;writing-mode:lr-tb;fill:#ed7d31;fill-opacity:1;fill-rule:nonzero;stroke:none"
           transform="matrix(1,0,0,-1,0,650)"><tspan
             id="tspan218"
             y="0"
             x="0">[</tspan></text>
</g><g
         transform="matrix(0.2181818,0,0,0.2181818,99.08788,-111.9636)"
         id="g222"><text
           id="text226"
           style="font-variant:normal;font-weight:normal;font-size:55px;font-family:CambriaMath;-inkscape-font-specification:CambriaMath;writing-mode:lr-tb;fill:#ed7d31;fill-opacity:1;fill-rule:nonzero;stroke:none"
           transform="matrix(1,0,0,-1,0,650)"><tspan
             id="tspan224"
             y="0"
             x="0">2</tspan></text>
</g><g
         transform="matrix(0.2181818,0,0,0.2181818,105.7129,-111.9636)"
         id="g228"><text
           id="text232"
           style="font-variant:normal;font-weight:normal;font-size:55px;font-family:CambriaMath;-inkscape-font-specification:CambriaMath;writing-mode:lr-tb;fill:#ed7d31;fill-opacity:1;fill-rule:nonzero;stroke:none"
           transform="matrix(1,0,0,-1,0,650)"><tspan
             id="tspan230"
             y="0"
             x="0">]</tspan></text>
</g><path
         id="path234"
         style="fill:#ffffff;fill-opacity:1;fill-rule:nonzero;stroke:none"
         d="m 245.4909,66.34544 h 24.4363 V 5.690953 h -24.4363 z" /><g
         transform="matrix(7.874016e-5,0,0,-7.874016e-5,245.4909,66.34544)"
         id="g236"><path
           id="path238"
           style="fill:none;stroke:#ed7d31;stroke-width:19050;stroke-linecap:butt;stroke-linejoin:miter;stroke-miterlimit:8;stroke-dasharray:none;stroke-opacity:1"
           d="M 0,0 H 310341 V 770312 H 0 Z" /></g><g
         transform="matrix(0.2181818,0,0,0.2181818,243.4834,-109.7818)"
         id="g240"><text
           id="text244"
           style="font-variant:normal;font-weight:normal;font-size:55px;font-family:CambriaMath;-inkscape-font-specification:CambriaMath;writing-mode:lr-tb;fill:#ed7d31;fill-opacity:1;fill-rule:nonzero;stroke:none"
           transform="matrix(1,0,0,-1,0,650)"><tspan
             id="tspan242"
             y="0"
             x="0">	</tspan></text>
</g><g
         transform="matrix(0.2181818,0,0,0.2181818,246.1084,-109.7818)"
         id="g246"><text
           id="text250"
           style="font-variant:normal;font-weight:normal;font-size:55px;font-family:CambriaMath;-inkscape-font-specification:CambriaMath;writing-mode:lr-tb;fill:#ed7d31;fill-opacity:1;fill-rule:nonzero;stroke:none"
           transform="matrix(1,0,0,-1,0,650)"><tspan
             id="tspan248"
             y="0"
             x="0">풞</tspan></text>
</g><g
         transform="matrix(0.2181818,0,0,0.2181818,253.7384,-109.7818)"
         id="g252"><text
           id="text256"
           style="font-variant:normal;font-weight:normal;font-size:55px;font-family:CambriaMath;-inkscape-font-specification:CambriaMath;writing-mode:lr-tb;fill:#ed7d31;fill-opacity:1;fill-rule:nonzero;stroke:none"
           transform="matrix(1,0,0,-1,0,650)"><tspan
             id="tspan254"
             y="0"
             x="0">[</tspan></text>
</g><g
         transform="matrix(0.2181818,0,0,0.2181818,257.9884,-109.7818)"
         id="g258"><text
           id="text262"
           style="font-variant:normal;font-weight:normal;font-size:55px;font-family:CambriaMath;-inkscape-font-specification:CambriaMath;writing-mode:lr-tb;fill:#ed7d31;fill-opacity:1;fill-rule:nonzero;stroke:none"
           transform="matrix(1,0,0,-1,0,650)"><tspan
             id="tspan260"
             y="0"
             x="0">8</tspan></text>
</g><g
         transform="matrix(0.2181818,0,0,0.2181818,264.6134,-109.7818)"
         id="g264"><text
           id="text268"
           style="font-variant:normal;font-weight:normal;font-size:55px;font-family:CambriaMath;-inkscape-font-specification:CambriaMath;writing-mode:lr-tb;fill:#ed7d31;fill-opacity:1;fill-rule:nonzero;stroke:none"
           transform="matrix(1,0,0,-1,0,650)"><tspan
             id="tspan266"
             y="0"
             x="0">]</tspan></text>
</g><g
         transform="matrix(7.874016e-5,0,0,-7.874016e-5,212.7636,104.7454)"
         id="g270"><path
           id="path272"
           style="fill:none;stroke:#70ad47;stroke-width:19050;stroke-linecap:butt;stroke-linejoin:miter;stroke-miterlimit:8;stroke-dasharray:76200, 57150;stroke-dashoffset:0;stroke-opacity:1"
           d="M 0,0 H 756458 V 1296785 H 0 Z" /></g><path
         id="path274"
         style="fill:#ffffff;fill-opacity:1;fill-rule:nonzero;stroke:none"
         d="M 86.21818,136.6 H 110.6546 V 75.72725 H 86.21818 Z" /><g
         transform="matrix(7.874016e-5,0,0,-7.874016e-5,86.21818,136.6)"
         id="g276"><path
           id="path278"
           style="fill:none;stroke:#ed7d31;stroke-width:19050;stroke-linecap:butt;stroke-linejoin:miter;stroke-miterlimit:8;stroke-dasharray:none;stroke-opacity:1"
           d="M 0,0 H 310342 V 773084 H 0 Z" /></g><g
         transform="matrix(0.2181818,0,0,0.2181818,84.25414,-39.74545)"
         id="g280"><text
           id="text284"
           style="font-variant:normal;font-weight:normal;font-size:55px;font-family:CambriaMath;-inkscape-font-specification:CambriaMath;writing-mode:lr-tb;fill:#ed7d31;fill-opacity:1;fill-rule:nonzero;stroke:none"
           transform="matrix(1,0,0,-1,0,650)"><tspan
             id="tspan282"
             y="0"
             x="0">	</tspan></text>
</g><g
         transform="matrix(0.2181818,0,0,0.2181818,86.87914,-39.74545)"
         id="g286"><text
           id="text290"
           style="font-variant:normal;font-weight:normal;font-size:55px;font-family:CambriaMath;-inkscape-font-specification:CambriaMath;writing-mode:lr-tb;fill:#ed7d31;fill-opacity:1;fill-rule:nonzero;stroke:none"
           transform="matrix(1,0,0,-1,0,650)"><tspan
             id="tspan288"
             y="0"
             x="0">풞</tspan></text>
</g><g
         transform="matrix(0.2181818,0,0,0.2181818,94.50914,-39.74545)"
         id="g292"><text
           id="text296"
           style="font-variant:normal;font-weight:normal;font-size:55px;font-family:CambriaMath;-inkscape-font-specification:CambriaMath;writing-mode:lr-tb;fill:#ed7d31;fill-opacity:1;fill-rule:nonzero;stroke:none"
           transform="matrix(1,0,0,-1,0,650)"><tspan
             id="tspan294"
             y="0"
             x="0">[</tspan></text>
</g><g
         transform="matrix(0.2181818,0,0,0.2181818,98.75914,-39.74545)"
         id="g298"><text
           id="text302"
           style="font-variant:normal;font-weight:normal;font-size:55px;font-family:CambriaMath;-inkscape-font-specification:CambriaMath;writing-mode:lr-tb;fill:#ed7d31;fill-opacity:1;fill-rule:nonzero;stroke:none"
           transform="matrix(1,0,0,-1,0,650)"><tspan
             id="tspan300"
             y="0"
             x="0">3</tspan></text>
</g><g
         transform="matrix(0.2181818,0,0,0.2181818,105.3841,-39.74545)"
         id="g304"><text
           id="text308"
           style="font-variant:normal;font-weight:normal;font-size:55px;font-family:CambriaMath;-inkscape-font-specification:CambriaMath;writing-mode:lr-tb;fill:#ed7d31;fill-opacity:1;fill-rule:nonzero;stroke:none"
           transform="matrix(1,0,0,-1,0,650)"><tspan
             id="tspan306"
             y="0"
             x="0">]</tspan></text>
</g><path
         id="path310"
         style="fill:#ffffff;fill-opacity:1;fill-rule:nonzero;stroke:none"
         d="m 122.6546,103.2182 h 24.4363 V 42.56363 h -24.4363 z" /><g
         transform="matrix(7.874016e-5,0,0,-7.874016e-5,122.6546,103.2182)"
         id="g312"><path
           id="path314"
           style="fill:none;stroke:#ed7d31;stroke-width:19050;stroke-linecap:butt;stroke-linejoin:miter;stroke-miterlimit:8;stroke-dasharray:none;stroke-opacity:1"
           d="M 0,0 H 310342 V 770313 H 0 Z" /></g><g
         transform="matrix(0.2181818,0,0,0.2181818,120.6883,-72.90908)"
         id="g316"><text
           id="text320"
           style="font-variant:normal;font-weight:normal;font-size:55px;font-family:CambriaMath;-inkscape-font-specification:CambriaMath;writing-mode:lr-tb;fill:#ed7d31;fill-opacity:1;fill-rule:nonzero;stroke:none"
           transform="matrix(1,0,0,-1,0,650)"><tspan
             id="tspan318"
             y="0"
             x="0">	</tspan></text>
</g><g
         transform="matrix(0.2181818,0,0,0.2181818,123.3133,-72.90908)"
         id="g322"><text
           id="text326"
           style="font-variant:normal;font-weight:normal;font-size:55px;font-family:CambriaMath;-inkscape-font-specification:CambriaMath;writing-mode:lr-tb;fill:#ed7d31;fill-opacity:1;fill-rule:nonzero;stroke:none"
           transform="matrix(1,0,0,-1,0,650)"><tspan
             id="tspan324"
             y="0"
             x="0">풞</tspan></text>
</g><g
         transform="matrix(0.2181818,0,0,0.2181818,130.9433,-72.90908)"
         id="g328"><text
           id="text332"
           style="font-variant:normal;font-weight:normal;font-size:55px;font-family:CambriaMath;-inkscape-font-specification:CambriaMath;writing-mode:lr-tb;fill:#ed7d31;fill-opacity:1;fill-rule:nonzero;stroke:none"
           transform="matrix(1,0,0,-1,0,650)"><tspan
             id="tspan330"
             y="0"
             x="0">[</tspan></text>
</g><g
         transform="matrix(0.2181818,0,0,0.2181818,135.1933,-72.90908)"
         id="g334"><text
           id="text338"
           style="font-variant:normal;font-weight:normal;font-size:55px;font-family:CambriaMath;-inkscape-font-specification:CambriaMath;writing-mode:lr-tb;fill:#ed7d31;fill-opacity:1;fill-rule:nonzero;stroke:none"
           transform="matrix(1,0,0,-1,0,650)"><tspan
             id="tspan336"
             y="0"
             x="0">4</tspan></text>
</g><g
         transform="matrix(0.2181818,0,0,0.2181818,141.8183,-72.90908)"
         id="g340"><text
           id="text344"
           style="font-variant:normal;font-weight:normal;font-size:55px;font-family:CambriaMath;-inkscape-font-specification:CambriaMath;writing-mode:lr-tb;fill:#ed7d31;fill-opacity:1;fill-rule:nonzero;stroke:none"
           transform="matrix(1,0,0,-1,0,650)"><tspan
             id="tspan342"
             y="0"
             x="0">]</tspan></text>
</g><path
         id="path346"
         style="fill:#ffffff;fill-opacity:1;fill-rule:nonzero;stroke:none"
         d="M 216.4727,102.7818 H 240.909 V 44.09095 h -24.4363 z" /><g
         transform="matrix(7.874016e-5,0,0,-7.874016e-5,216.4727,102.7818)"
         id="g348"><path
           id="path350"
           style="fill:none;stroke:#ed7d31;stroke-width:19050;stroke-linecap:butt;stroke-linejoin:miter;stroke-miterlimit:8;stroke-dasharray:none;stroke-opacity:1"
           d="M 0,0 H 310341 V 745374 H 0 Z" /></g><g
         transform="matrix(0.2181818,0,0,0.2181818,214.5503,-72.47272)"
         id="g352"><text
           id="text356"
           style="font-variant:normal;font-weight:normal;font-size:55px;font-family:CambriaMath;-inkscape-font-specification:CambriaMath;writing-mode:lr-tb;fill:#ed7d31;fill-opacity:1;fill-rule:nonzero;stroke:none"
           transform="matrix(1,0,0,-1,0,650)"><tspan
             id="tspan354"
             y="0"
             x="0">	</tspan></text>
</g><g
         transform="matrix(0.2181818,0,0,0.2181818,217.1753,-72.47272)"
         id="g358"><text
           id="text362"
           style="font-variant:normal;font-weight:normal;font-size:55px;font-family:CambriaMath;-inkscape-font-specification:CambriaMath;writing-mode:lr-tb;fill:#ed7d31;fill-opacity:1;fill-rule:nonzero;stroke:none"
           transform="matrix(1,0,0,-1,0,650)"><tspan
             id="tspan360"
             y="0"
             x="0">풞</tspan></text>
</g><g
         transform="matrix(0.2181818,0,0,0.2181818,224.8053,-72.47272)"
         id="g364"><text
           id="text368"
           style="font-variant:normal;font-weight:normal;font-size:55px;font-family:CambriaMath;-inkscape-font-specification:CambriaMath;writing-mode:lr-tb;fill:#ed7d31;fill-opacity:1;fill-rule:nonzero;stroke:none"
           transform="matrix(1,0,0,-1,0,650)"><tspan
             id="tspan366"
             y="0"
             x="0">[</tspan></text>
</g><g
         transform="matrix(0.2181818,0,0,0.2181818,229.0553,-72.47272)"
         id="g370"><text
           id="text374"
           style="font-variant:normal;font-weight:normal;font-size:55px;font-family:CambriaMath;-inkscape-font-specification:CambriaMath;writing-mode:lr-tb;fill:#ed7d31;fill-opacity:1;fill-rule:nonzero;stroke:none"
           transform="matrix(1,0,0,-1,0,650)"><tspan
             id="tspan372"
             y="0"
             x="0">7</tspan></text>
</g><g
         transform="matrix(0.2181818,0,0,0.2181818,235.6803,-72.47272)"
         id="g376"><text
           id="text380"
           style="font-variant:normal;font-weight:normal;font-size:55px;font-family:CambriaMath;-inkscape-font-specification:CambriaMath;writing-mode:lr-tb;fill:#ed7d31;fill-opacity:1;fill-rule:nonzero;stroke:none"
           transform="matrix(1,0,0,-1,0,650)"><tspan
             id="tspan378"
             y="0"
             x="0">]</tspan></text>
</g><path
         id="path382"
         style="fill:#ffffff;fill-opacity:1;fill-rule:nonzero;stroke:none"
         d="m 122.6546,28.81819 h 24.4363 V 5.036384 h -24.4363 z" /><g
         transform="matrix(7.874016e-5,0,0,-7.874016e-5,122.6546,28.81819)"
         id="g384"><path
           id="path386"
           style="fill:none;stroke:#ed7d31;stroke-width:19050;stroke-linecap:butt;stroke-linejoin:miter;stroke-miterlimit:8;stroke-dasharray:none;stroke-opacity:1"
           d="M 0,0 H 310342 V 302029 H 0 Z" /></g><g
         transform="matrix(0.2181818,0,0,0.2181818,120.6883,-128.9818)"
         id="g388"><text
           id="text392"
           style="font-variant:normal;font-weight:normal;font-size:55px;font-family:CambriaMath;-inkscape-font-specification:CambriaMath;writing-mode:lr-tb;fill:#ed7d31;fill-opacity:1;fill-rule:nonzero;stroke:none"
           transform="matrix(1,0,0,-1,0,650)"><tspan
             id="tspan390"
             y="0"
             x="0">	</tspan></text>
</g><g
         transform="matrix(0.2181818,0,0,0.2181818,123.3133,-128.9818)"
         id="g394"><text
           id="text398"
           style="font-variant:normal;font-weight:normal;font-size:55px;font-family:CambriaMath;-inkscape-font-specification:CambriaMath;writing-mode:lr-tb;fill:#ed7d31;fill-opacity:1;fill-rule:nonzero;stroke:none"
           transform="matrix(1,0,0,-1,0,650)"><tspan
             id="tspan396"
             y="0"
             x="0">풞</tspan></text>
</g><g
         transform="matrix(0.2181818,0,0,0.2181818,130.9433,-128.9818)"
         id="g400"><text
           id="text404"
           style="font-variant:normal;font-weight:normal;font-size:55px;font-family:CambriaMath;-inkscape-font-specification:CambriaMath;writing-mode:lr-tb;fill:#ed7d31;fill-opacity:1;fill-rule:nonzero;stroke:none"
           transform="matrix(1,0,0,-1,0,650)"><tspan
             id="tspan402"
             y="0"
             x="0">[</tspan></text>
</g><g
         transform="matrix(0.2181818,0,0,0.2181818,135.1933,-128.9818)"
         id="g406"><text
           id="text410"
           style="font-variant:normal;font-weight:normal;font-size:55px;font-family:CambriaMath;-inkscape-font-specification:CambriaMath;writing-mode:lr-tb;fill:#ed7d31;fill-opacity:1;fill-rule:nonzero;stroke:none"
           transform="matrix(1,0,0,-1,0,650)"><tspan
             id="tspan408"
             y="0"
             x="0">5</tspan></text>
</g><g
         transform="matrix(0.2181818,0,0,0.2181818,141.8183,-128.9818)"
         id="g412"><text
           id="text416"
           style="font-variant:normal;font-weight:normal;font-size:55px;font-family:CambriaMath;-inkscape-font-specification:CambriaMath;writing-mode:lr-tb;fill:#ed7d31;fill-opacity:1;fill-rule:nonzero;stroke:none"
           transform="matrix(1,0,0,-1,0,650)"><tspan
             id="tspan414"
             y="0"
             x="0">]</tspan></text>
</g><g
         transform="matrix(7.874016e-5,0,0,-7.874016e-5,49.12723,140.5273)"
         id="g418"><path
           id="path420"
           style="fill:none;stroke:#4472c4;stroke-width:19050;stroke-linecap:butt;stroke-linejoin:miter;stroke-miterlimit:8;stroke-dasharray:19050, 19050;stroke-dashoffset:0;stroke-opacity:1"
           d="M 0,0 V 1291243 H 403125.5 V 895964.3 H 878947.2 V 1271479 H 1321724 V 6587.561 Z" /></g><path
         id="path422"
         style="fill:#ed7d31;fill-opacity:1;fill-rule:evenodd;stroke:none"
         d="m 297.0909,126.3455 c 0,-2.4702 -2.0025,-4.4727 -4.4727,-4.4727 -2.4703,0 -4.4728,2.0025 -4.4728,4.4727 0,2.4702 2.0025,4.4727 4.4728,4.4727 2.4702,0 4.4727,-2.0025 4.4727,-4.4727 z" /><g
         transform="matrix(-7.874016e-5,0,0,7.874016e-5,292.6183,28.73331)"
         id="g424"><path
           id="path426"
           style="fill:none;stroke:#ed7d31;stroke-width:19050;stroke-linecap:butt;stroke-linejoin:miter;stroke-miterlimit:8;stroke-dasharray:none;stroke-opacity:1"
           d="M 0,0 1,1181485" /></g><path
         id="path428"
         style="fill:#ffffff;fill-opacity:1;fill-rule:nonzero;stroke:none"
         d="m 280.4,28.6 h 24.4364 V 5.472756 H 280.4 Z" /><g
         transform="matrix(7.874016e-5,0,0,-7.874016e-5,280.4,28.6)"
         id="g430"><path
           id="path432"
           style="fill:none;stroke:#ed7d31;stroke-width:19050;stroke-linecap:butt;stroke-linejoin:miter;stroke-miterlimit:8;stroke-dasharray:none;stroke-opacity:1"
           d="M 0,0 H 310342 V 293716 H 0 Z" /></g><g
         transform="matrix(0.2181818,0,0,0.2181818,278.4738,-128.7636)"
         id="g434"><text
           id="text438"
           style="font-variant:normal;font-weight:normal;font-size:55px;font-family:CambriaMath;-inkscape-font-specification:CambriaMath;writing-mode:lr-tb;fill:#ed7d31;fill-opacity:1;fill-rule:nonzero;stroke:none"
           transform="matrix(1,0,0,-1,0,650)"><tspan
             id="tspan436"
             y="0"
             x="0">	</tspan></text>
</g><g
         transform="matrix(0.2181818,0,0,0.2181818,281.0988,-128.7636)"
         id="g440"><text
           id="text444"
           style="font-variant:normal;font-weight:normal;font-size:55px;font-family:CambriaMath;-inkscape-font-specification:CambriaMath;writing-mode:lr-tb;fill:#ed7d31;fill-opacity:1;fill-rule:nonzero;stroke:none"
           transform="matrix(1,0,0,-1,0,650)"><tspan
             id="tspan442"
             y="0"
             x="0">풞</tspan></text>
</g><g
         transform="matrix(0.2181818,0,0,0.2181818,288.7288,-128.7636)"
         id="g446"><text
           id="text450"
           style="font-variant:normal;font-weight:normal;font-size:55px;font-family:CambriaMath;-inkscape-font-specification:CambriaMath;writing-mode:lr-tb;fill:#ed7d31;fill-opacity:1;fill-rule:nonzero;stroke:none"
           transform="matrix(1,0,0,-1,0,650)"><tspan
             id="tspan448"
             y="0"
             x="0">[</tspan></text>
</g><g
         transform="matrix(0.2181818,0,0,0.2181818,292.9788,-128.7636)"
         id="g452"><text
           id="text456"
           style="font-variant:normal;font-weight:normal;font-size:55px;font-family:CambriaMath;-inkscape-font-specification:CambriaMath;writing-mode:lr-tb;fill:#ed7d31;fill-opacity:1;fill-rule:nonzero;stroke:none"
           transform="matrix(1,0,0,-1,0,650)"><tspan
             id="tspan454"
             y="0"
             x="0">9</tspan></text>
</g><g
         transform="matrix(0.2181818,0,0,0.2181818,299.6038,-128.7636)"
         id="g458"><text
           id="text462"
           style="font-variant:normal;font-weight:normal;font-size:55px;font-family:CambriaMath;-inkscape-font-specification:CambriaMath;writing-mode:lr-tb;fill:#ed7d31;fill-opacity:1;fill-rule:nonzero;stroke:none"
           transform="matrix(1,0,0,-1,0,650)"><tspan
             id="tspan460"
             y="0"
             x="0">]</tspan></text>
</g><g
         transform="matrix(7.874016e-5,0,0,-7.874016e-5,176.9818,139.4364)"
         id="g464"><path
           id="path466"
           style="fill:none;stroke:#4472c4;stroke-width:19050;stroke-linecap:butt;stroke-linejoin:miter;stroke-miterlimit:8;stroke-dasharray:19050, 19050;stroke-dashoffset:0;stroke-opacity:1"
           d="M 0,0 V 844662.1 H 405124.5 V 387401.4 H 1261863 V 1740131 h 411766 V 6350.843 H 13282.77 Z" /></g><g
         transform="matrix(7.874016e-5,0,0,-7.874016e-5,84.03637,65.90906)"
         id="g468"><path
           id="path470"
           style="fill:none;stroke:#70ad47;stroke-width:19050;stroke-linecap:butt;stroke-linejoin:miter;stroke-miterlimit:8;stroke-dasharray:76200, 57150;stroke-dashoffset:0;stroke-opacity:1"
           d="M 0,1556.497 V 817418 H 858982 V 406373.3 H 400858.3 C 402449.5,270915.8 404039.7,135457.4 405630.9,0 Z" /></g></g></g></svg>